<svg xmlns="http://www.w3.org/2000/svg" width="211" height="45" viewBox="0 0 211 45" fill="none">
<path d="M49.7314 31.8401L35.4858 7.08318C34.2226 4.86658 31.521 4.0183 29.3136 5.29626L19.0218 11.26C17.981 11.8635 17.2222 12.8553 16.912 14.0177C16.6019 15.1802 16.7657 16.4181 17.3676 17.4599L31.6538 42.1762C31.947 42.6835 32.3375 43.1281 32.8027 43.4843C33.268 43.8406 33.7989 44.1017 34.3652 44.2526C34.9314 44.4035 35.5219 44.4413 36.1027 44.3637C36.6836 44.2862 37.2435 44.0949 37.7503 43.8008L45.0197 39.5834L48.2321 37.6434C49.1913 37.0643 49.8853 36.1324 50.1656 35.0476C50.4458 33.9628 50.29 32.8113 49.7314 31.8401V31.8401ZM34.1986 24.591C34.6061 25.4429 35.661 27.713 35.661 27.713C36.299 27.8753 38.18 27.9841 38.18 27.9841L38.9324 28.8785C36.974 29.2233 36.3912 29.4335 36.3912 29.4335L36.5221 30.0716L36.039 29.6364C36.039 29.6364 35.5688 30.0365 34.2963 31.5671L33.8943 30.4699C33.8943 30.4699 34.7315 28.7826 34.9086 28.1482C34.9086 28.1482 33.461 26.1049 32.9262 25.3286C32.9262 25.3286 32.4891 24.7514 32.0834 24.7108C32.0834 24.7108 31.213 24.9745 27.8937 29.8595C27.6752 29.5624 27.5375 29.2137 27.4942 28.8475C27.4509 28.4812 27.5034 28.11 27.6466 27.7702L28.1223 26.7762L27.5525 25.8044C27.5195 25.7491 27.5019 25.6861 27.5012 25.6217C27.5006 25.5574 27.5171 25.494 27.549 25.4382C27.5809 25.3823 27.627 25.3359 27.6827 25.3036C27.7384 25.2714 27.8017 25.2546 27.866 25.2548C27.9235 25.2543 27.9803 25.2677 28.0317 25.2936C28.083 25.3196 28.1274 25.3575 28.1611 25.4042L28.517 25.8873L29.1476 24.3936L28.6036 23.4679C28.5583 23.3916 28.5423 23.3015 28.5586 23.2143C28.5748 23.127 28.6223 23.0487 28.6922 22.994C28.7572 22.9422 28.8377 22.9136 28.9208 22.9128C28.978 22.913 29.0343 22.9266 29.0852 22.9525C29.1362 22.9785 29.1803 23.016 29.214 23.0622C29.3316 23.215 29.4313 23.3808 29.5109 23.5564L30.5012 21.2089C30.5012 21.2089 28.9374 18.5995 28.93 17.6572C28.927 17.5993 28.9289 17.5414 28.9356 17.4838C28.9368 17.4321 28.9508 17.3814 28.9763 17.3363C29.0019 17.2913 29.0382 17.2533 29.082 17.2257C29.1259 17.1981 29.1759 17.1818 29.2275 17.1783C29.2792 17.1747 29.331 17.184 29.3782 17.2054C29.4556 17.2404 29.5626 17.3013 29.5626 17.3013C30.3758 17.7752 31.8253 20.4418 31.8253 20.4418L34.3553 20.7497C34.2423 20.5933 34.1477 20.4243 34.0732 20.2463C34.0521 20.2 34.0414 20.1496 34.0418 20.0988C34.0419 20.0176 34.0688 19.9387 34.1183 19.8745C34.1678 19.8102 34.2372 19.764 34.3156 19.7432C34.3941 19.7224 34.4772 19.728 34.5521 19.7593C34.6269 19.7906 34.6894 19.8458 34.7297 19.9162L35.2608 20.8475L36.8725 21.0429L36.6273 20.4934C36.607 20.4468 36.5964 20.3966 36.5959 20.3459C36.5963 20.2745 36.6174 20.2048 36.6567 20.1452C36.696 20.0856 36.7518 20.0387 36.8172 20.0102C36.9035 19.9765 36.9991 19.9755 37.0861 20.0075C37.1731 20.0394 37.2453 20.102 37.2893 20.1836L37.8388 21.1425L38.9397 21.2218C39.3059 21.2664 39.6541 21.4052 39.9505 21.6247C40.2469 21.8441 40.4813 22.1368 40.6308 22.4739C34.7426 22.9294 34.0787 23.5546 34.0787 23.5546C33.9128 23.9271 34.1986 24.591 34.1986 24.591V24.591Z" fill="#19AD33"/>
<path d="M15.1832 15.6516C15.0417 14.6053 15.2522 13.5417 15.7816 12.6282L11.0238 4.43488L14.5276 2.4156C15.1389 2.06539 15.8635 1.96985 16.5447 2.14964C17.2259 2.32943 17.809 2.7701 18.1678 3.37637L21.0335 8.24661L22.4646 7.40386L19.5988 2.53547C19.0171 1.55313 18.0723 0.839048 16.9685 0.547485C15.8647 0.255922 14.6906 0.410281 13.6996 0.977217L3.16986 7.04611C2.65482 7.34239 2.20359 7.73781 1.84227 8.2095C1.48095 8.6812 1.21668 9.21983 1.06476 9.79427C0.912833 10.3687 0.876259 10.9675 0.957144 11.5562C1.03803 12.1449 1.23477 12.7116 1.536 13.2238L16.0416 38.202C16.6343 39.1466 17.5773 39.8177 18.6639 40.0682C19.042 40.163 19.4303 40.2113 19.8201 40.212C20.5559 40.2207 21.2801 40.0288 21.915 39.657L26.8553 36.8134L16.0907 18.334C15.6026 17.5138 15.2934 16.5997 15.1832 15.6516V15.6516ZM21.0797 38.2223L21.0612 38.2334C20.4512 38.5643 19.7363 38.645 19.0678 38.4583C18.4139 38.3168 17.8417 37.9241 17.4745 37.3648L2.96889 12.3866C2.77853 12.0631 2.65412 11.7052 2.60282 11.3333C2.55153 10.9615 2.57437 10.5832 2.67004 10.2203C2.7657 9.85733 2.9323 9.51692 3.1602 9.21869C3.38811 8.92047 3.67282 8.67032 3.9979 8.48269L7.31726 6.57037L24.5816 36.2086L21.0797 38.2223Z" fill="#19AD33"/>
<path d="M69.2237 4.86816V24.4453H67.5147V22.4255H67.4627C66.4528 23.8756 64.5884 24.756 62.7497 24.756C61.8985 24.783 61.0508 24.6362 60.2583 24.3245C59.4658 24.0129 58.7451 23.5429 58.1403 22.9434C56.9608 21.7194 56.3018 20.0857 56.3018 18.3858C56.3018 16.6859 56.9608 15.0522 58.1403 13.8281C58.745 13.2285 59.4657 12.7585 60.2582 12.4468C61.0507 12.1352 61.8985 11.9883 62.7497 12.0153C64.6142 12.0153 66.4528 12.8957 67.4627 14.3458H67.5145V4.86816H69.2237ZM58.1663 18.3857C58.116 19.6566 58.5724 20.8954 59.4351 21.83C59.8576 22.2821 60.3721 22.6385 60.9438 22.8753C61.5155 23.112 62.1313 23.2236 62.7498 23.2025C63.3876 23.2172 64.0217 23.1029 64.6142 22.8663C65.2067 22.6298 65.7452 22.276 66.1975 21.8261C66.6498 21.3762 67.0065 20.8395 67.2462 20.2483C67.4859 19.6571 67.6036 19.0236 67.5923 18.3857C67.6076 17.7465 67.4914 17.1109 67.2508 16.5185C67.0103 15.926 66.6505 15.3894 66.1939 14.9417C65.7362 14.4932 65.1934 14.1407 64.5975 13.905C64.0016 13.6693 63.3646 13.5551 62.7239 13.5693C62.1155 13.5487 61.5098 13.6581 60.9471 13.8903C60.3844 14.1226 59.8777 14.4722 59.461 14.9159C58.5901 15.8573 58.1249 17.1039 58.1663 18.3857V18.3857Z" fill="#19AD33"/>
<path d="M74.5569 12.3257V19.1623C74.5569 21.9591 75.541 23.2022 77.8197 23.2022C78.3206 23.2023 78.8153 23.0908 79.2677 22.8757C79.7201 22.6607 80.1189 22.3475 80.4352 21.9591C81.1604 21.1563 81.5228 20.0427 81.5228 18.6444V12.3257H83.232V21.8813C83.232 22.7359 83.2837 23.5904 83.3615 24.4449H81.6006C81.55 24.1193 81.524 23.7903 81.5228 23.4608V22.5028H81.4711C81.0313 23.184 80.43 23.7461 79.7208 24.1391C79.0115 24.5321 78.2162 24.7439 77.4054 24.7557C74.3755 24.7557 72.8477 23.0207 72.8477 20.1203V12.3257H74.5569Z" fill="#19AD33"/>
<path d="M96.6711 14.527C97.0346 13.772 97.6045 13.1353 98.3149 12.6908C99.0252 12.2462 99.847 12.012 100.685 12.0152C103.611 12.0152 105.217 13.6725 105.217 16.6506V24.4451H103.508V17.2461C103.508 14.6826 102.601 13.5691 100.452 13.5691C98.2507 13.5691 97.0336 15.2781 97.0336 17.8934V24.4451H95.3245V17.2461C95.3245 14.7343 94.444 13.5691 92.2946 13.5691C90.3266 13.5691 88.8505 15.304 88.8505 18.282V24.4451H87.1413V14.8636C87.1413 13.9574 87.0896 13.1028 87.012 12.3259H88.8505V14.1646H88.9022C89.3255 13.5109 89.9042 12.9724 90.5866 12.5972C91.2691 12.2221 92.0339 12.0222 92.8126 12.0152C94.7288 12.0152 96.0237 12.8438 96.6711 14.527Z" fill="#19AD33"/>
<path d="M118.629 14.527C118.992 13.772 119.562 13.1353 120.273 12.6908C120.983 12.2463 121.805 12.012 122.643 12.0152C125.569 12.0152 127.175 13.6725 127.175 16.6506V24.4451H125.465V17.2461C125.465 14.6826 124.559 13.5691 122.41 13.5691C120.209 13.5691 118.991 15.2781 118.991 17.8934V24.4451H117.282V17.2461C117.282 14.7343 116.402 13.5691 114.252 13.5691C112.284 13.5691 110.808 15.304 110.808 18.282V24.4451H109.099V14.8636C109.099 13.9574 109.048 13.1028 108.97 12.3259H110.809V14.1646H110.86C111.283 13.5109 111.862 12.9724 112.545 12.5972C113.227 12.2221 113.992 12.0222 114.771 12.0152C116.687 12.0152 117.982 12.8438 118.629 14.527Z" fill="#19AD33"/>
<path d="M131.756 12.3257L135.563 22.3472L139.266 12.3257H141.338L135.433 27.2416C134.397 29.9349 133.284 30.6598 131.445 30.6598C130.922 30.6665 130.4 30.6056 129.892 30.4787L130.073 28.8214C130.478 29.0125 130.92 29.1098 131.368 29.1062C132.378 29.1062 133.103 28.4848 133.569 27.2416L134.579 24.6005L129.607 12.3257L131.756 12.3257Z" fill="#19AD33"/>
<path d="M150.037 4.73857L149.727 6.29221C149.297 6.17204 148.852 6.11112 148.406 6.11114C146.878 6.11114 146.205 6.96567 146.205 9.11478V12.326H149.079V13.8798H146.205V24.4452H144.496V13.8797H141.932V12.3259H144.496V8.88188C144.496 6.11093 145.868 4.55729 148.561 4.55729C149.059 4.5536 149.555 4.61454 150.037 4.73857Z" fill="#19AD33"/>
<path d="M153.092 4.86816V24.4453H151.383V4.86816H153.092Z" fill="#19AD33"/>
<path d="M159.592 7.6646C159.588 7.90605 159.514 8.14127 159.379 8.3414C159.244 8.54154 159.054 8.69792 158.831 8.79137C158.608 8.88482 158.363 8.91129 158.126 8.86753C157.888 8.82377 157.669 8.71168 157.494 8.545C157.372 8.43331 157.274 8.29733 157.207 8.14575C157.14 7.99416 157.105 7.83029 157.105 7.6646C157.105 7.49891 157.14 7.33505 157.207 7.18346C157.274 7.03188 157.372 6.89589 157.494 6.7842C157.67 6.62019 157.889 6.51046 158.126 6.46818C158.362 6.4259 158.606 6.45289 158.828 6.5459C159.049 6.63891 159.239 6.79398 159.375 6.99245C159.51 7.19092 159.586 7.42433 159.592 7.6646V7.6646ZM159.203 12.3258V24.4451H157.494V12.3258H159.203Z" fill="#19AD33"/>
<path d="M173.42 14.3201H173.497V12.3262H175.206V24.4454C175.206 28.3038 172.927 30.6602 168.707 30.6602C166.35 30.6602 164.408 29.8577 162.88 28.2262L164.149 26.8796C165.262 28.3556 166.816 29.1066 168.81 29.1066C171.814 29.1066 173.497 27.3455 173.497 24.4454V22.1666H173.445C172.435 23.6943 170.934 24.4454 168.914 24.4454C168.082 24.4672 167.256 24.3174 166.485 24.0055C165.714 23.6936 165.016 23.2262 164.434 22.6325C163.843 22.0743 163.374 21.3994 163.057 20.6505C162.741 19.9017 162.583 19.0952 162.595 18.2823C162.576 17.4559 162.722 16.6341 163.024 15.8648C163.327 15.0955 163.779 14.3943 164.356 13.8021C164.926 13.2162 165.612 12.7548 166.37 12.4473C167.128 12.1398 167.941 11.9927 168.758 12.0155C170.804 12.0155 172.358 12.7924 173.42 14.3201ZM164.459 18.2306C164.45 18.839 164.562 19.4432 164.789 20.0079C165.015 20.5725 165.352 21.0863 165.78 21.519C166.183 21.9609 166.676 22.3118 167.225 22.5485C167.774 22.7852 168.368 22.9021 168.966 22.8915C169.568 22.9046 170.168 22.7967 170.728 22.5744C171.288 22.352 171.798 22.0196 172.228 21.5968C172.659 21.1822 172.998 20.6827 173.226 20.1299C173.453 19.5772 173.563 18.9832 173.549 18.3857C173.549 16.9356 173.109 15.7704 172.254 14.8897C171.823 14.4517 171.306 14.1081 170.736 13.8808C170.165 13.6535 169.553 13.5474 168.939 13.5692C168.346 13.5665 167.759 13.687 167.215 13.9233C166.672 14.1596 166.183 14.5064 165.78 14.9417C165.352 15.3745 165.015 15.8883 164.788 16.4531C164.562 17.0178 164.45 17.6221 164.459 18.2306V18.2306Z" fill="#19AD33"/>
<path d="M180.643 4.86816V14.2683H180.695C181.446 12.9475 183.129 12.0154 184.761 12.0154C187.739 12.0154 189.318 13.6727 189.318 16.6508V24.4453H187.609V17.6087C187.609 14.7862 186.677 13.5692 184.398 13.5692C182.352 13.5692 180.643 15.2265 180.643 18.2563V24.4453H178.934V4.86816H180.643Z" fill="#19AD33"/>
<path d="M195.998 8.90771V12.3258H199.494V13.8797H195.998V21.1304C195.998 22.5029 196.49 23.2022 197.759 23.2022C198.376 23.1977 198.982 23.0373 199.52 22.736L199.598 24.3157C198.866 24.6153 198.083 24.7649 197.293 24.7558C195.402 24.7558 194.289 23.5905 194.289 21.6225V13.8797H191.725V12.3259H194.289V8.90771H195.998Z" fill="#19AD33"/>
<path d="M209.67 14.1904L208.142 15.2004C207.92 14.6975 207.552 14.273 207.086 13.982C206.62 13.6911 206.076 13.5471 205.527 13.5689C204.051 13.5689 203.015 14.2679 203.015 15.3815C203.015 16.4174 203.663 16.9612 205.812 17.4013C207.236 17.7123 208.194 18.0489 208.686 18.3855C209.118 18.6775 209.471 19.0712 209.715 19.5318C209.959 19.9923 210.086 20.5058 210.085 21.0269C210.085 23.3057 208.194 24.7558 205.372 24.7558C203.326 24.7558 201.772 23.9789 200.71 22.3994L202.186 21.3894C202.989 22.6063 204.051 23.2022 205.372 23.2022C207.029 23.2022 208.194 22.4254 208.22 21.1821C208.246 20.0686 207.443 19.5248 204.957 19.0069C202.419 18.5151 201.151 17.4016 201.151 15.6663C201.151 13.4652 202.963 12.0151 205.631 12.0151C207.624 12.0151 208.971 12.7402 209.67 14.1904Z" fill="#19AD33"/>
<path d="M77.3695 36.3571C77.8986 36.3395 78.4131 36.5322 78.8004 36.893C78.9804 37.0711 79.1232 37.2831 79.2207 37.5167C79.3182 37.7504 79.3684 38.001 79.3684 38.2542C79.3684 38.5073 79.3182 38.758 79.2207 38.9916C79.1232 39.2253 78.9804 39.4373 78.8004 39.6153C78.4215 39.9724 77.9167 40.165 77.3963 40.1513H76.1155V36.3571H77.3695ZM77.257 39.7977C77.4813 39.8094 77.7057 39.7766 77.9172 39.7012C78.1288 39.6257 78.3233 39.5092 78.4896 39.3582C78.64 39.2172 78.7589 39.0459 78.8383 38.8556C78.9177 38.6654 78.9559 38.4604 78.9504 38.2543C78.9554 38.0475 78.917 37.8419 78.8376 37.6509C78.7582 37.4598 78.6397 37.2875 78.4896 37.1452C78.1582 36.8476 77.7234 36.6917 77.2784 36.7109H76.5013V39.7977H77.257Z" fill="#19AD33"/>
<path d="M82.9624 36.3574V38.7206C82.9624 39.4656 83.343 39.8943 83.9645 39.8943C84.5861 39.8943 84.9667 39.4657 84.9667 38.7206V36.3574H85.3526V38.7582C85.3526 39.6587 84.8595 40.2482 83.9645 40.2482C83.0696 40.2482 82.5767 39.6639 82.5767 38.7582V36.3574H82.9624Z" fill="#19AD33"/>
<path d="M89.4074 36.3574L90.6881 39.4442L91.9691 36.3574H92.5584V40.1516H92.1725V36.8719H92.1618L90.7899 40.1516H90.5863L89.2144 36.8719H89.2036V40.1516H88.8179V36.3574H89.4074Z" fill="#19AD33"/>
<path d="M96.6774 36.3574L97.9581 39.4442L99.2389 36.3574H99.8285V40.1516H99.4427V36.8719H99.4319L98.06 40.1516H97.8564L96.4845 36.8719H96.4737V40.1516H96.0879V36.3574H96.6774Z" fill="#19AD33"/>
<path d="M103.251 36.3574L104.381 38.1473L105.512 36.3574H105.994L104.574 38.5173V40.1516H104.188V38.5173L102.768 36.3574H103.251Z" fill="#19AD33"/>
<path d="M115.413 36.3574V36.7112H114.143V40.1518H113.757V36.7112H112.487V36.3574H115.413Z" fill="#19AD33"/>
<path d="M118.889 36.3574V40.1516H118.503V36.3574H118.889Z" fill="#19AD33"/>
<path d="M125.452 36.8611L125.115 37.1131C125.011 36.9584 124.866 36.8358 124.697 36.7593C124.525 36.6684 124.334 36.6188 124.139 36.6146C123.93 36.608 123.721 36.6467 123.528 36.7281C123.335 36.8095 123.161 36.9317 123.019 37.0863C122.736 37.4095 122.58 37.8247 122.58 38.2545C122.58 38.6843 122.736 39.0995 123.019 39.4227C123.161 39.5773 123.335 39.6995 123.528 39.7809C123.721 39.8623 123.93 39.9011 124.139 39.8945C124.355 39.9044 124.569 39.857 124.76 39.7573C124.951 39.6575 125.112 39.5089 125.227 39.3265L125.543 39.5515C125.383 39.7723 125.171 39.951 124.927 40.0723C124.682 40.1937 124.412 40.254 124.139 40.2482C123.878 40.2547 123.617 40.2071 123.375 40.1085C123.132 40.0098 122.913 39.8621 122.73 39.6747C122.365 39.2918 122.162 38.7833 122.162 38.2546C122.162 37.7258 122.365 37.2173 122.73 36.8344C122.913 36.647 123.132 36.4994 123.375 36.4007C123.617 36.302 123.878 36.2545 124.139 36.261C124.39 36.2493 124.64 36.2977 124.868 36.4021C125.097 36.5065 125.297 36.6638 125.452 36.8611V36.8611Z" fill="#19AD33"/>
<path d="M129.078 36.3575V38.0029H129.132L130.917 36.3575H131.468L129.555 38.0778L131.576 40.1516H131.008L129.143 38.1955H129.078V40.1516H128.693V36.3574L129.078 36.3575Z" fill="#19AD33"/>
<path d="M136.922 36.3574V36.7112H134.955V38.0029H136.793V38.3563H134.955V39.798H136.986V40.1517H134.569V36.3575L136.922 36.3574Z" fill="#19AD33"/>
<path d="M142.735 36.3574V36.7112H141.465V40.1518H141.079V36.7112H139.809V36.3574H142.735Z" fill="#19AD33"/>
<path d="M152.105 36.3574V36.7112H150.202V38.0029H151.971V38.3563H150.202V40.1517H149.816V36.3575L152.105 36.3574Z" fill="#19AD33"/>
<path d="M157.017 36.2606C157.28 36.2527 157.541 36.299 157.784 36.3968C158.028 36.4946 158.248 36.6417 158.432 36.8289C158.794 37.2144 158.995 37.7231 158.995 38.2516C158.995 38.7801 158.794 39.2887 158.432 39.6743C158.248 39.8613 158.027 40.0087 157.784 40.1073C157.541 40.206 157.28 40.2537 157.017 40.2477C156.756 40.2543 156.495 40.2067 156.253 40.108C156.01 40.0093 155.791 39.8617 155.608 39.6743C155.421 39.489 155.274 39.2674 155.177 39.0231C155.079 38.7788 155.032 38.5171 155.04 38.2541C155.033 37.9908 155.079 37.7289 155.176 37.4839C155.272 37.2389 155.417 37.0161 155.603 36.8287C155.786 36.6416 156.007 36.4945 156.251 36.3968C156.494 36.299 156.755 36.2527 157.017 36.2606V36.2606ZM155.458 38.2543C155.444 38.6865 155.602 39.1066 155.897 39.4224C156.044 39.5718 156.218 39.6904 156.411 39.7714C156.604 39.8524 156.811 39.8941 157.02 39.8941C157.229 39.8941 157.436 39.8524 157.629 39.7714C157.822 39.6904 157.997 39.5718 158.143 39.4224C158.434 39.1041 158.589 38.6852 158.577 38.2543C158.59 37.8222 158.432 37.4024 158.137 37.0861C157.992 36.9372 157.818 36.8188 157.625 36.7379C157.433 36.6569 157.227 36.6149 157.019 36.6144C156.81 36.6139 156.604 36.6548 156.411 36.7349C156.219 36.8149 156.044 36.9324 155.897 37.0806C155.603 37.399 155.445 37.8205 155.458 38.2543H155.458Z" fill="#19AD33"/>
<path d="M163.462 36.3574C164.228 36.3574 164.684 36.7112 164.684 37.3704C164.687 37.4987 164.665 37.6264 164.618 37.7458C164.571 37.8653 164.5 37.974 164.41 38.0655C164.32 38.1571 164.212 38.2295 164.094 38.2786C163.975 38.3276 163.848 38.3523 163.719 38.351L164.807 40.1517H164.336L163.296 38.3886H162.653V40.1517H162.267V36.3575L163.462 36.3574ZM163.366 38.0348C163.944 38.0348 164.266 37.7991 164.266 37.3704C164.266 36.9416 163.928 36.7112 163.366 36.7112H162.653V38.0348H163.366Z" fill="#19AD33"/>
<path d="M171.836 36.3574L173.041 39.5729H173.052L174.295 36.3574H174.713L173.234 40.1516H172.848L171.407 36.3574H171.836Z" fill="#19AD33"/>
<path d="M178.098 36.3574V40.1516H177.712V36.3574H178.098Z" fill="#19AD33"/>
<path d="M183.761 36.7216L183.424 36.984C183.344 36.864 183.234 36.7668 183.106 36.702C182.977 36.6372 182.834 36.607 182.69 36.6143C182.591 36.6023 182.491 36.6109 182.395 36.6395C182.3 36.6681 182.211 36.7161 182.135 36.7805C182.059 36.8449 181.997 36.9243 181.954 37.0137C181.91 37.1032 181.885 37.2007 181.881 37.3002C181.881 37.6432 182.1 37.8522 182.577 38.0025C182.754 38.0612 182.893 38.1042 182.984 38.1364C183.075 38.1739 183.188 38.2219 183.317 38.2864C183.42 38.3382 183.514 38.407 183.595 38.4898C183.748 38.6733 183.83 38.9053 183.826 39.1438C183.83 39.2936 183.799 39.4422 183.736 39.578C183.673 39.7138 183.579 39.833 183.461 39.9263C183.214 40.1391 182.898 40.2535 182.572 40.2477C182.342 40.2592 182.114 40.2138 181.906 40.1156C181.699 40.0175 181.519 39.8695 181.382 39.685L181.73 39.433C181.816 39.5823 181.942 39.7045 182.093 39.786C182.245 39.8675 182.416 39.9049 182.588 39.894C182.798 39.8981 183.003 39.828 183.167 39.6958C183.243 39.6383 183.304 39.5638 183.346 39.4781C183.388 39.3925 183.409 39.2981 183.408 39.2028C183.408 38.8328 183.204 38.6293 182.625 38.4523C182.465 38.4041 182.341 38.3614 182.25 38.3239C182.144 38.2847 182.042 38.2363 181.945 38.1791C181.845 38.1314 181.756 38.064 181.682 37.9809C181.52 37.7699 181.443 37.5054 181.467 37.2402C181.491 36.9751 181.613 36.7286 181.811 36.55C182.06 36.351 182.372 36.2483 182.69 36.2605C182.892 36.2519 183.093 36.2889 183.278 36.3687C183.464 36.4486 183.629 36.5691 183.761 36.7216Z" fill="#19AD33"/>
<path d="M188.62 36.3574L190.271 40.1516H189.821L189.403 39.155H187.463L187.045 40.1516H186.594L188.245 36.3574H188.62ZM187.608 38.8012H189.253L188.433 36.8076L187.608 38.8012Z" fill="#19AD33"/>
</svg>