<svg xmlns="http://www.w3.org/2000/svg" width="229.999" height="38.022" viewBox="0 0 229.999 38.022">
  <g id="_2126563073744" transform="translate(0 0)">
    <path id="Path_1" data-name="Path 1" d="M17129.109,8049.308h-5.131l-.883,2.349h-2.1l4.393-11.524h2.328l4.391,11.524h-2.117Zm-.562-1.54-1.994-5.351-2.012,5.351Zm16.658,3.889-2.822-4.6h-1.533v4.6h-2.01v-11.508h4.23a5.542,5.542,0,0,1,2.391.464,3.331,3.331,0,0,1,1.463,1.241,3.211,3.211,0,0,1,.486,1.738,3.3,3.3,0,0,1-.7,2.045,3.556,3.556,0,0,1-2.145,1.249l3.033,4.77Zm-4.355-6.108h2.221a2.425,2.425,0,0,0,1.705-.532,1.84,1.84,0,0,0,.574-1.423,1.785,1.785,0,0,0-.564-1.4,2.514,2.514,0,0,0-1.715-.505h-2.221Zm19.553,6.226a6.691,6.691,0,0,1-3.15-.752,5.8,5.8,0,0,1-2.273-2.1,5.912,5.912,0,0,1,0-6.068,5.811,5.811,0,0,1,2.273-2.094,6.984,6.984,0,0,1,6.316,0,5.755,5.755,0,0,1,2.268,2.094,5.972,5.972,0,0,1,0,6.068,5.743,5.743,0,0,1-2.268,2.1A6.714,6.714,0,0,1,17160.4,8051.774Zm0-1.638a4.453,4.453,0,0,0,2.17-.524,3.753,3.753,0,0,0,1.492-1.488,4.942,4.942,0,0,0,0-4.481,3.714,3.714,0,0,0-1.492-1.473,4.844,4.844,0,0,0-4.34,0,3.68,3.68,0,0,0-1.488,1.473,4.942,4.942,0,0,0,0,4.481,3.719,3.719,0,0,0,1.488,1.488A4.448,4.448,0,0,0,17160.4,8050.136Zm25.973-9.987v11.508h-2.014v-7.882l-3.736,7.882h-1.393l-3.758-7.882v7.882h-2.01v-11.508h2.168l4.3,9.025,4.287-9.025Zm14.857,9.159h-5.129l-.883,2.349h-2.1l4.393-11.524h2.33l4.391,11.524h-2.117Zm-.562-1.54-1.994-5.351-2.01,5.351Zm20.471,4.006a6.683,6.683,0,0,1-3.148-.752,5.764,5.764,0,0,1-2.275-2.1,5.924,5.924,0,0,1,0-6.068,5.777,5.777,0,0,1,2.275-2.094,6.98,6.98,0,0,1,6.314,0,5.742,5.742,0,0,1,2.268,2.094,5.972,5.972,0,0,1,0,6.068,5.73,5.73,0,0,1-2.268,2.1A6.714,6.714,0,0,1,17221.141,8051.774Zm0-1.638a4.453,4.453,0,0,0,2.17-.524,3.731,3.731,0,0,0,1.488-1.488,4.927,4.927,0,0,0,0-4.481,3.692,3.692,0,0,0-1.488-1.473,4.844,4.844,0,0,0-4.34,0,3.709,3.709,0,0,0-1.49,1.473,4.942,4.942,0,0,0,0,4.481,3.748,3.748,0,0,0,1.49,1.488A4.453,4.453,0,0,0,17221.141,8050.136Zm20.277-9.987v1.54h-5.2v3.4h4.055v1.54h-4.055v5.033h-2.012v-11.508Zm27.238,0-3.631,11.508h-2.275l-2.574-8.71-2.734,8.71-2.258.017-3.475-11.524h2.135l2.539,9.373,2.75-9.373h2.26l2.559,9.324,2.557-9.324Zm8.494,0v11.508h-2.01v-11.508Zm17.545,11.508h-2.012l-6.049-8.593v8.593h-2.012v-11.524h2.012l6.049,8.577v-8.577h2.012Zm9.479-9.984v3.379h4.232v1.54h-4.232v3.525h4.762v1.54h-6.773v-11.524h6.773v1.54Z" transform="translate(-17078.936 -8033.646)" fill="#c93"/>
    <path id="Path_2" data-name="Path 2" d="M19947.605,14252.587l-2.328,7.714h-.916l-2.068-6.578-2.119,6.578-.895.014-2.279-7.728h.883l1.881,6.766,2.1-6.766h.918l2.049,6.766,1.893-6.766Zm1.67.552a.6.6,0,0,1-.422-.166.542.542,0,0,1-.176-.41.523.523,0,0,1,.176-.4.638.638,0,0,1,.846,0,.523.523,0,0,1,.176.4.542.542,0,0,1-.176.41A.6.6,0,0,1,19949.275,14253.139Zm.41,1.135v6.027h-.82v-6.027Zm4.881-.108a2.677,2.677,0,0,1,1.881.668,2.492,2.492,0,0,1,.73,1.937v3.531h-.812v-3.444a2.028,2.028,0,0,0-.521-1.5,1.94,1.94,0,0,0-1.43-.519,2,2,0,0,0-1.482.551,2.2,2.2,0,0,0-.551,1.622v3.289h-.824v-6.027h.824v1.026a2.035,2.035,0,0,1,.881-.845A2.874,2.874,0,0,1,19954.566,14254.165Zm10.242,2.813c0,.267-.01.468-.023.608h-5.33a2.374,2.374,0,0,0,.354,1.171,2.067,2.067,0,0,0,.836.733,2.576,2.576,0,0,0,1.129.247,2.383,2.383,0,0,0,1.346-.364,1.691,1.691,0,0,0,.721-.983h.873a2.551,2.551,0,0,1-1,1.442,3.221,3.221,0,0,1-1.936.558,3.426,3.426,0,0,1-1.623-.381,2.784,2.784,0,0,1-1.123-1.084,3.217,3.217,0,0,1-.4-1.638,3.283,3.283,0,0,1,.4-1.646,2.7,2.7,0,0,1,1.113-1.081,3.491,3.491,0,0,1,1.637-.375,3.3,3.3,0,0,1,1.605.375,2.707,2.707,0,0,1,1.059,1.011A2.744,2.744,0,0,1,19964.809,14256.979Zm-.836-.021a2.063,2.063,0,0,0-.285-1.148,1.961,1.961,0,0,0-.82-.718,2.646,2.646,0,0,0-1.127-.241,2.336,2.336,0,0,0-1.566.551,2.155,2.155,0,0,0-.719,1.557Zm5.975-3.818a.617.617,0,0,1-.428-.166.555.555,0,0,1-.174-.41.535.535,0,0,1,.174-.4.625.625,0,0,1,.428-.16.614.614,0,0,1,.422.16.516.516,0,0,1,.176.4.535.535,0,0,1-.176.41A.606.606,0,0,1,19969.947,14253.139Zm.408,1.135v6.027h-.822v-6.027Zm4.881-.108a2.677,2.677,0,0,1,1.881.668,2.491,2.491,0,0,1,.729,1.937v3.531h-.809v-3.444a2.029,2.029,0,0,0-.523-1.5,1.941,1.941,0,0,0-1.432-.519,2,2,0,0,0-1.48.551,2.187,2.187,0,0,0-.551,1.622v3.289h-.826v-6.027h.826v1.026a2.035,2.035,0,0,1,.881-.845A2.868,2.868,0,0,1,19975.236,14254.165Zm6.643,6.226a3.116,3.116,0,0,1-1.8-.481,1.729,1.729,0,0,1-.781-1.306h.846a1.123,1.123,0,0,0,.512.819,2.088,2.088,0,0,0,1.219.315,1.662,1.662,0,0,0,1.053-.3.9.9,0,0,0,.381-.738.684.684,0,0,0-.211-.509,1.553,1.553,0,0,0-.537-.314,8.743,8.743,0,0,0-.875-.247,9.609,9.609,0,0,1-1.166-.354,2.015,2.015,0,0,1-.758-.524,1.361,1.361,0,0,1-.309-.934,1.328,1.328,0,0,1,.279-.815,1.894,1.894,0,0,1,.8-.6,2.967,2.967,0,0,1,1.174-.22,2.652,2.652,0,0,1,1.67.491,1.751,1.751,0,0,1,.682,1.354h-.826a1.15,1.15,0,0,0-.437-.856,2.037,2.037,0,0,0-2.125-.051.824.824,0,0,0-.387.685.8.8,0,0,0,.229.581,1.607,1.607,0,0,0,.572.353q.34.126.918.28a9.838,9.838,0,0,1,1.1.342,1.947,1.947,0,0,1,.705.486,1.258,1.258,0,0,1,.307.851,1.422,1.422,0,0,1-.281.866,1.9,1.9,0,0,1-.789.6A2.891,2.891,0,0,1,19981.879,14260.391Zm4.6-4.792a2.489,2.489,0,0,1,.969-1.01,3,3,0,0,1,1.582-.4,3.246,3.246,0,0,1,1.568.38,2.724,2.724,0,0,1,1.1,1.082,3.568,3.568,0,0,1,0,3.262,2.734,2.734,0,0,1-1.1,1.094,3.175,3.175,0,0,1-1.568.387,3.008,3.008,0,0,1-1.576-.4,2.481,2.481,0,0,1-.975-1.011v4.172h-.811v-8.876h.811Zm4.773,1.679a2.585,2.585,0,0,0-.312-1.3,2.107,2.107,0,0,0-.852-.834,2.584,2.584,0,0,0-1.223-.285,2.453,2.453,0,0,0-1.207.3,2.188,2.188,0,0,0-.861.847,2.735,2.735,0,0,0,0,2.562,2.179,2.179,0,0,0,.861.851,2.485,2.485,0,0,0,1.207.3,2.521,2.521,0,0,0,1.223-.294,2.1,2.1,0,0,0,.852-.85A2.616,2.616,0,0,0,19991.25,14257.277Zm2.762-4.139a.6.6,0,0,1-.422-.166.537.537,0,0,1-.178-.41.518.518,0,0,1,.178-.4.636.636,0,0,1,.844,0,.518.518,0,0,1,.178.4.537.537,0,0,1-.178.41A.6.6,0,0,1,19994.012,14253.139Zm.412,1.135v6.027h-.822v-6.027Zm2.691,1.073a1.923,1.923,0,0,1,.83-.872,2.788,2.788,0,0,1,1.369-.31v.8h-.223a2.158,2.158,0,0,0-1.434.454,1.871,1.871,0,0,0-.543,1.513v3.365h-.822v-6.027h.822Zm9.244,1.632c0,.267-.01.468-.023.608h-5.328a2.354,2.354,0,0,0,.354,1.171,2.061,2.061,0,0,0,.834.733,2.59,2.59,0,0,0,1.131.247,2.377,2.377,0,0,0,1.344-.364,1.694,1.694,0,0,0,.723-.983h.871a2.551,2.551,0,0,1-1,1.442,3.219,3.219,0,0,1-1.934.558,3.415,3.415,0,0,1-1.623-.381,2.771,2.771,0,0,1-1.123-1.084,3.218,3.218,0,0,1-.406-1.638,3.3,3.3,0,0,1,.4-1.646,2.7,2.7,0,0,1,1.117-1.081,3.475,3.475,0,0,1,1.637-.375,3.308,3.308,0,0,1,1.6.375,2.694,2.694,0,0,1,1.059,1.011A2.725,2.725,0,0,1,20006.359,14256.979Zm-.836-.021a2.031,2.031,0,0,0-.285-1.148,1.938,1.938,0,0,0-.82-.718,2.64,2.64,0,0,0-1.127-.241,2.335,2.335,0,0,0-1.564.551,2.148,2.148,0,0,0-.719,1.557Zm1.965.32a3.237,3.237,0,0,1,.4-1.629,2.783,2.783,0,0,1,1.1-1.082,3.267,3.267,0,0,1,1.582-.38,3.035,3.035,0,0,1,1.527.386,2.444,2.444,0,0,1,1,1v-3.444h.822v8.168h-.822v-1.345a2.382,2.382,0,0,1-.965,1.032,3,3,0,0,1-1.574.4,3.188,3.188,0,0,1-1.58-.387,2.746,2.746,0,0,1-1.1-1.094A3.285,3.285,0,0,1,20007.488,14257.277Zm5.607.011a2.542,2.542,0,0,0-.316-1.282,2.186,2.186,0,0,0-.865-.847,2.45,2.45,0,0,0-1.205-.3,2.559,2.559,0,0,0-1.221.285,2.088,2.088,0,0,0-.854.834,2.545,2.545,0,0,0-.314,1.3,2.576,2.576,0,0,0,.314,1.3,2.079,2.079,0,0,0,.854.85,2.63,2.63,0,0,0,2.426,0,2.176,2.176,0,0,0,.865-.851A2.519,2.519,0,0,0,20013.1,14257.288Zm6.736-1.679a2.505,2.505,0,0,1,.982-1.026,3.028,3.028,0,0,1,1.568-.4,3.257,3.257,0,0,1,1.578.38,2.779,2.779,0,0,1,1.088,1.082,3.584,3.584,0,0,1,0,3.262,2.779,2.779,0,0,1-1.094,1.094,3.185,3.185,0,0,1-1.572.387,3.081,3.081,0,0,1-1.582-.392,2.408,2.408,0,0,1-.969-1.021v1.323h-.811v-8.168h.811Zm4.773,1.668a2.584,2.584,0,0,0-.311-1.3,2.088,2.088,0,0,0-.854-.834,2.584,2.584,0,0,0-1.223-.285,2.466,2.466,0,0,0-1.205.3,2.193,2.193,0,0,0-.863.847,2.735,2.735,0,0,0,0,2.562,2.184,2.184,0,0,0,.863.851,2.634,2.634,0,0,0,2.428,0,2.079,2.079,0,0,0,.854-.85A2.615,2.615,0,0,0,20024.605,14257.277Zm7.643-3-3.809,8.865h-.857l1.244-2.871-2.633-5.994h.906l2.186,5.145,2.117-5.145Zm9.629,0-3.809,8.865h-.857l1.246-2.871-2.637-5.994h.906l2.188,5.145,2.117-5.145Zm3.93,6.117a3.463,3.463,0,0,1-1.631-.381,2.811,2.811,0,0,1-1.139-1.084,3.393,3.393,0,0,1,0-3.277,2.88,2.88,0,0,1,1.152-1.082,3.5,3.5,0,0,1,1.635-.38,3.537,3.537,0,0,1,1.641.38,2.855,2.855,0,0,1,1.152,1.082,3.175,3.175,0,0,1,.418,1.64,3.117,3.117,0,0,1-.424,1.633,2.827,2.827,0,0,1-1.164,1.089A3.553,3.553,0,0,1,20045.807,14260.391Zm0-.674a2.554,2.554,0,0,0,1.172-.271,2.129,2.129,0,0,0,.879-.815,2.877,2.877,0,0,0,0-2.684,2.106,2.106,0,0,0-.869-.817,2.708,2.708,0,0,0-2.352,0,2.08,2.08,0,0,0-.863.817,2.939,2.939,0,0,0,0,2.684,2.062,2.062,0,0,0,.855.815A2.556,2.556,0,0,0,20045.807,14259.717Zm10.3-5.443v6.027h-.822v-1.06a1.918,1.918,0,0,1-.869.861,2.876,2.876,0,0,1-1.316.3,2.675,2.675,0,0,1-1.883-.669,2.492,2.492,0,0,1-.73-1.937v-3.522h.814v3.434a2.014,2.014,0,0,0,.523,1.5,1.936,1.936,0,0,0,1.426.519,2.015,2.015,0,0,0,1.484-.552,2.208,2.208,0,0,0,.551-1.624v-3.278Zm2.705,1.073a1.9,1.9,0,0,1,.828-.872,2.8,2.8,0,0,1,1.371-.31v.8h-.223a2.163,2.163,0,0,0-1.436.454,1.864,1.864,0,0,0-.541,1.513v3.365h-.824v-6.027h.824Zm7.469.252a2.483,2.483,0,0,1,.967-1.01,2.988,2.988,0,0,1,1.58-.4,3.256,3.256,0,0,1,1.572.38,2.738,2.738,0,0,1,1.092,1.082,3.584,3.584,0,0,1,0,3.262,2.749,2.749,0,0,1-1.092,1.094,3.185,3.185,0,0,1-1.572.387,2.991,2.991,0,0,1-1.574-.4,2.464,2.464,0,0,1-.973-1.011v4.172h-.814v-8.876h.814Zm4.771,1.679a2.564,2.564,0,0,0-.312-1.3,2.107,2.107,0,0,0-.852-.834,2.584,2.584,0,0,0-1.223-.285,2.453,2.453,0,0,0-1.207.3,2.211,2.211,0,0,0-.865.847,2.781,2.781,0,0,0,0,2.562,2.2,2.2,0,0,0,.865.851,2.485,2.485,0,0,0,1.207.3,2.521,2.521,0,0,0,1.223-.294,2.1,2.1,0,0,0,.852-.85A2.6,2.6,0,0,0,20071.049,14257.277Zm1.973,0a3.256,3.256,0,0,1,.4-1.629,2.707,2.707,0,0,1,1.094-1.082,3.265,3.265,0,0,1,1.58-.38,3.039,3.039,0,0,1,1.582.4,2.384,2.384,0,0,1,.957,1.016v-1.325h.824v6.027h-.824v-1.334a2.473,2.473,0,0,1-.969,1.021,3,3,0,0,1-1.584.4,3.168,3.168,0,0,1-1.566-.387,2.717,2.717,0,0,1-1.094-1.094A3.287,3.287,0,0,1,20073.021,14257.277Zm5.609.011a2.543,2.543,0,0,0-.318-1.282,2.176,2.176,0,0,0-.861-.847,2.456,2.456,0,0,0-1.205-.3,2.594,2.594,0,0,0-1.227.285,2.127,2.127,0,0,0-.85.834,2.564,2.564,0,0,0-.312,1.3,2.6,2.6,0,0,0,.313,1.3,2.117,2.117,0,0,0,.85.85,2.531,2.531,0,0,0,1.227.294,2.488,2.488,0,0,0,1.205-.3,2.167,2.167,0,0,0,.861-.851A2.519,2.519,0,0,0,20078.631,14257.288Zm3.527-5.155v8.168h-.822v-8.168Zm1.494,5.145a3.276,3.276,0,0,1,.395-1.629,2.7,2.7,0,0,1,1.094-1.082,3.27,3.27,0,0,1,1.58-.38,3.053,3.053,0,0,1,1.582.4,2.384,2.384,0,0,1,.957,1.016v-1.325h.824v6.027h-.824v-1.334a2.473,2.473,0,0,1-.969,1.021,3,3,0,0,1-1.582.4,3.175,3.175,0,0,1-1.568-.387,2.705,2.705,0,0,1-1.094-1.094A3.307,3.307,0,0,1,20083.652,14257.277Zm5.607.011a2.543,2.543,0,0,0-.318-1.282,2.163,2.163,0,0,0-.861-.847,2.458,2.458,0,0,0-1.207-.3,2.586,2.586,0,0,0-1.225.285,2.086,2.086,0,0,0-.848.834,2.564,2.564,0,0,0-.312,1.3,2.6,2.6,0,0,0,.313,1.3,2.077,2.077,0,0,0,.848.85,2.523,2.523,0,0,0,1.225.294,2.49,2.49,0,0,0,1.207-.3,2.154,2.154,0,0,0,.861-.851A2.519,2.519,0,0,0,20089.26,14257.288Zm3.775-2.362v3.742a1.026,1.026,0,0,0,.223.761,1.136,1.136,0,0,0,.787.212h.754v.66h-.883a1.882,1.882,0,0,1-1.295-.381,1.62,1.62,0,0,1-.422-1.252v-3.742h-.895v-.652h.895v-1.51h.836v1.51h1.764v.652Zm8.922,2.053a5.9,5.9,0,0,1-.023.608h-5.326a2.334,2.334,0,0,0,.354,1.171,2.03,2.03,0,0,0,.836.733,2.576,2.576,0,0,0,1.129.247,2.383,2.383,0,0,0,1.346-.364,1.707,1.707,0,0,0,.721-.983h.873a2.549,2.549,0,0,1-1.008,1.442,3.2,3.2,0,0,1-1.932.558,3.409,3.409,0,0,1-1.623-.381,2.759,2.759,0,0,1-1.123-1.084,3.2,3.2,0,0,1-.4-1.638,3.283,3.283,0,0,1,.4-1.646,2.7,2.7,0,0,1,1.115-1.081,3.472,3.472,0,0,1,1.635-.375,3.31,3.31,0,0,1,1.605.375,2.671,2.671,0,0,1,1.055,1.011A2.706,2.706,0,0,1,20101.957,14256.979Zm-.832-.021a2.048,2.048,0,0,0-.289-1.148,1.928,1.928,0,0,0-.816-.718,2.655,2.655,0,0,0-1.129-.241,2.328,2.328,0,0,0-1.564.551,2.141,2.141,0,0,0-.719,1.557Z" transform="translate(-19886.791 -14228.774)" fill="#c93"/>
    <g id="Group_2" data-name="Group 2">
      <path id="Path_3" data-name="Path 3" d="M2613.679,5710.893a.486.486,0,0,1,.648-.1.416.416,0,0,1,.1.608,32.409,32.409,0,0,1-3.3,3.721,13.714,13.714,0,0,1-4.088,2.784c-1.993.823-4.452,1.138-6.234-.274a4.349,4.349,0,0,1-1.232-1.578c-2.048-4.392,1.675-7.8,5.011-10.348.275-.209.555-.424.8-.608l.475-.367c.894-.69,1.62-1.252,1.675-1.32.243-.3.694-.174,1.261.225.671.476,1.739,1.355,2.667,2.121,1.021.842,2.534,2.16,3.992,2.138a.36.36,0,0,0,.223-.049c.02-.019.026-.073.017-.16a3.423,3.423,0,0,0-.821-1.5h0a20.552,20.552,0,0,0-3.3-3.162,7.069,7.069,0,0,0-2.658-1.412v0h0l-.171.022a5.94,5.94,0,0,0-1.455.546,19.892,19.892,0,0,0-2.132,1.22c-8.152,5.271-7.889,8.449-7.354,14.936l.04.478a10.131,10.131,0,0,1,4,2.6,10.39,10.39,0,0,1,2.722,4.577.437.437,0,0,1-.353.519.463.463,0,0,1-.552-.331,9.541,9.541,0,0,0-2.5-4.172,9.116,9.116,0,0,0-3.631-2.374,12.881,12.881,0,0,1-3.342,4.68,18.58,18.58,0,0,1-5.676,3.721c-2.606.964-4.539.782-5.7-.014a2.9,2.9,0,0,1-1.256-2.616,5.213,5.213,0,0,1,1.5-3.191c2.132-2.316,6.639-4.27,13.834-3.583l-.017-.233c-.567-6.82-.842-10.161,7.75-15.721a21.5,21.5,0,0,1,2.236-1.276,6.808,6.808,0,0,1,1.733-.63c.093-.013.168-.021.226-.027h0a1.079,1.079,0,0,1,.234,0h0a7.867,7.867,0,0,1,3.093,1.6,21.559,21.559,0,0,1,3.466,3.319h0a4.14,4.14,0,0,1,1,1.939.991.991,0,0,1-.266.839,1.243,1.243,0,0,1-.885.318c-1.768.03-3.379-1.328-4.617-2.349-.92-.758-1.979-1.63-2.615-2.081-.11-.079-.176-.209-.379-.033a17.12,17.12,0,0,1-1.409,1.1l-.477.367c-.3.231-.55.424-.8.611-2.951,2.249-6.587,5.375-4.745,9.321a3.468,3.468,0,0,0,.981,1.263c1.49,1.182,3.616.817,5.262.141a12.864,12.864,0,0,0,3.8-2.6A31.386,31.386,0,0,0,2613.679,5710.893Zm-4.776-9.272-.012,0h0c-.009,0,.006,0,.012,0Zm-15.388,22.089a12.287,12.287,0,0,0,3.073-4.215c-6.721-.6-10.883,1.185-12.836,3.3a4.386,4.386,0,0,0-1.276,2.659,2.065,2.065,0,0,0,.876,1.872c.92.633,2.537.747,4.808-.093A17.625,17.625,0,0,0,2593.515,5723.709Z" transform="translate(-2581.543 -5700.75)" fill="#c93"/>
      <g id="Group_1" data-name="Group 1" transform="translate(14.078 19.505)">
        <path id="Path_4" data-name="Path 4" d="M10374.636,12882.932a4.368,4.368,0,1,1-4.644,4.359A4.51,4.51,0,0,1,10374.636,12882.932Zm-4.161,7.931a5.8,5.8,0,0,0,4.161,1.72,5.3,5.3,0,1,0-5.636-5.291,5.054,5.054,0,0,0,.845,2.792A5.458,5.458,0,0,0,10370.475,12890.862Z" transform="translate(-10360.55 -12882)" fill="#c93" fill-rule="evenodd"/>
        <path id="Path_5" data-name="Path 5" d="M9372.637,16492.77a3.6,3.6,0,1,1-3.822,3.588A3.707,3.707,0,0,1,9372.637,16492.77Zm-3.422,6.525a4.757,4.757,0,0,0,3.422,1.418,4.365,4.365,0,1,0-4.637-4.355,4.148,4.148,0,0,0,.7,2.3A4.41,4.41,0,0,0,9369.215,16499.295Z" transform="translate(-9362.445 -16482.195)" fill="#c93" fill-rule="evenodd"/>
        <path id="Path_6" data-name="Path 6" d="M7452.46,14161.739a3.455,3.455,0,1,1-3.674,3.446A3.566,3.566,0,0,1,7452.46,14161.739Zm-3.292,6.274a4.591,4.591,0,0,0,3.292,1.36,4.2,4.2,0,1,0-4.46-4.188,3.972,3.972,0,0,0,.671,2.209A4.422,4.422,0,0,0,7449.168,14168.014Z" transform="translate(-7448 -14157.526)" fill="#c93" fill-rule="evenodd"/>
      </g>
    </g>
  </g>
</svg>
